<?xml version="1.0" encoding="UTF-8"?>
<svg id="Layer_1" data-name="Layer 1" xmlns="http://www.w3.org/2000/svg" viewBox="0 0 1500 626.18">
  <defs>
    <style>
      .cls-1, .cls-2, .cls-3 {
        fill: #00a651;
      }

      .cls-1, .cls-4 {
        letter-spacing: -.04em;
      }

      .cls-5 {
        font-family: ArialMT, Arial;
        font-size: 24px;
      }

      .cls-6, .cls-7 {
        fill: #be1e2d;
      }

      .cls-2, .cls-8, .cls-9, .cls-10, .cls-11, .cls-7 {
        stroke-width: 0px;
      }

      .cls-8, .cls-12 {
        fill: #1c75bc;
      }

      .cls-13 {
        stroke: #231f20;
      }

      .cls-13, .cls-14 {
        fill: none;
        stroke-miterlimit: 10;
        stroke-width: 2px;
      }

      .cls-15 {
        font-family: Arial-BoldMT, Arial;
        font-size: 40px;
        font-weight: 700;
      }

      .cls-14 {
        stroke: #000;
      }

      .cls-9, .cls-16 {
        fill: #f7941d;
      }

      .cls-10 {
        fill: #231f20;
      }

      .cls-11 {
        fill: #2e3192;
      }

      .cls-17 {
        letter-spacing: -.06em;
      }
    </style>
  </defs>
  <path class="cls-10" d="m1498,2v49H182V2h1316m2-2H180v53h1320V0h0Z"/>
  <path class="cls-10" d="m774.78,66v487H182V66h592.78m2-2H180v491h596.78V64h0Z"/>
  <path class="cls-10" d="m1498,66v487h-705.5V66h705.5m2-2h-709.5v491h709.5V64h0Z"/>
  <text class="cls-5" transform="translate(798.64 35.09)"><tspan x="0" y="0">Outside</tspan></text>
  <text class="cls-5" transform="translate(7.8 86.22)"><tspan x="0" y="0">Front Entrance</tspan><tspan x="5.34" y="28.8">(ring doorbell)</tspan></text>
  <text class="cls-5" transform="translate(413.01 190.67)"><tspan x="0" y="0">Any health </tspan><tspan x="1.34" y="28.8">concerns?</tspan></text>
  <text class="cls-5" transform="translate(853.74 118.09)"><tspan class="cls-4" x="0" y="0">T</tspan><tspan x="13.77" y="0">riage Booth</tspan></text>
  <text class="cls-5" transform="translate(10.13 520.89)"><tspan x="0" y="0">Back Entrance</tspan><tspan x="21.35" y="28.8">(need key)</tspan></text>
  <text class="cls-15" transform="translate(187.06 617.78)"><tspan class="cls-12" x="0" y="0">Pre-Clinical</tspan><tspan x="220.08" y="0" xml:space="preserve"> | </tspan><tspan class="cls-16" x="253.5" y="0">Pharmacy</tspan><tspan x="444.73" y="0" xml:space="preserve"> | </tspan><tspan class="cls-6" x="478.14" y="0">Clinical</tspan><tspan x="620.41" y="0" xml:space="preserve"> | </tspan><tspan class="cls-3" x="653.83" y="0">Health</tspan><tspan class="cls-1" x="776.07" y="0"> </tspan><tspan class="cls-3" x="785.7" y="0">Advocates</tspan><tspan x="988.01" y="0" xml:space="preserve"> | MiT2 Lifeguard</tspan></text>
  <text class="cls-15" transform="translate(417.64 529.02)"><tspan x="0" y="0">Side</tspan><tspan class="cls-4" x="84.47" y="0" xml:space="preserve"> A</tspan></text>
  <text class="cls-15" transform="translate(926.37 529.02)"><tspan x="0" y="0">Side B</tspan></text>
  <g>
    <path class="cls-8" d="m426.69,261.38c-2.52.45-4.73,1.91-6.13,4.03-1.17,1.77-1.64,3.7-1.48,5.92.26,3.36,2.57,6.46,5.73,7.7,1.24.49,1.84.59,3.38.6,1.46,0,1.82-.05,2.96-.41,2.29-.72,4.48-2.69,5.48-4.89,1.08-2.37,1.12-5.05.11-7.44-.63-1.51-2.01-3.2-3.29-4.04-2.03-1.34-4.52-1.88-6.76-1.47Z"/>
    <path class="cls-8" d="m417.06,281.8c-.07.02-.43.08-.78.13-.92.15-2.3.62-3.23,1.1-3.43,1.77-5.68,4.92-6.36,8.9-.09.51-.11,3.87-.11,15.78v15.13l.19.62c.62,1.94,2.7,3.09,4.75,2.61,1.4-.33,2.32-1.12,2.85-2.44l.21-.52.03-13.5.02-13.49h1.91l.02,36.1.03,36.11.18.53c.51,1.47,1.34,2.47,2.56,3.07,1.65.81,3.41.81,5.1,0,1.32-.63,2.34-1.91,2.73-3.43.09-.35.12-4.66.14-21.49l.03-21.07h1.83v20.93c0,18.09.02,21.02.13,21.55.53,2.55,2.96,4.3,5.7,4.1,2.26-.16,3.97-1.43,4.68-3.49l.23-.7.03-36.11.02-36.11.94.03.93.03.04,13.52c.03,9.57.07,13.6.14,13.78.65,1.77,2.02,2.74,3.89,2.74,2.03,0,3.59-1.37,3.89-3.43.07-.5.09-4.7.07-15.39-.03-13.81-.04-14.75-.19-15.52-.96-4.97-4.35-8.63-9.09-9.81l-.91-.23-11.22-.02c-6.16,0-11.28,0-11.35,0Z"/>
  </g>
  <g>
    <path class="cls-9" d="m488.83,262.04c-2.52.45-4.73,1.91-6.13,4.03-1.17,1.77-1.64,3.7-1.48,5.92.26,3.36,2.57,6.46,5.73,7.7,1.24.49,1.84.59,3.38.6,1.46,0,1.82-.05,2.96-.41,2.29-.72,4.48-2.69,5.48-4.89,1.08-2.37,1.12-5.05.11-7.44-.63-1.51-2.01-3.2-3.29-4.04-2.03-1.34-4.52-1.88-6.76-1.47Z"/>
    <path class="cls-9" d="m479.2,282.46c-.07.02-.43.08-.78.13-.92.15-2.3.62-3.23,1.1-3.43,1.77-5.68,4.92-6.36,8.9-.09.51-.11,3.87-.11,15.78v15.13l.19.62c.62,1.94,2.7,3.09,4.75,2.61,1.4-.33,2.32-1.12,2.85-2.44l.21-.52.03-13.5.02-13.49h1.91l.02,36.1.03,36.11.18.53c.51,1.47,1.34,2.47,2.56,3.07,1.65.81,3.41.81,5.1,0,1.32-.63,2.34-1.91,2.73-3.43.09-.35.12-4.66.14-21.49l.03-21.07h1.83v20.93c0,18.09.02,21.02.13,21.55.53,2.55,2.96,4.3,5.7,4.1,2.26-.16,3.97-1.43,4.68-3.49l.23-.7.03-36.11.02-36.11.94.03.93.03.04,13.52c.03,9.57.07,13.6.14,13.78.65,1.77,2.02,2.74,3.89,2.74,2.03,0,3.59-1.37,3.89-3.43.07-.5.09-4.7.07-15.39-.03-13.81-.04-14.75-.19-15.52-.96-4.97-4.35-8.63-9.09-9.81l-.91-.23-11.22-.02c-6.16,0-11.28,0-11.35,0Z"/>
  </g>
  <g>
    <path class="cls-9" d="m1284.67,321.41c-2.52.45-4.73,1.91-6.13,4.03-1.17,1.77-1.64,3.7-1.48,5.92.26,3.36,2.57,6.46,5.73,7.7,1.24.49,1.84.59,3.38.6,1.46,0,1.82-.05,2.96-.41,2.29-.72,4.48-2.69,5.48-4.89,1.08-2.37,1.12-5.05.11-7.44-.63-1.51-2.01-3.2-3.29-4.04-2.03-1.34-4.52-1.88-6.76-1.47Z"/>
    <path class="cls-9" d="m1275.05,341.83c-.07.02-.43.08-.78.13-.92.15-2.3.62-3.23,1.1-3.43,1.77-5.68,4.92-6.36,8.9-.09.51-.11,3.87-.11,15.78v15.13l.19.62c.62,1.94,2.7,3.09,4.75,2.61,1.4-.33,2.32-1.12,2.85-2.44l.21-.52.03-13.5.02-13.49h1.91l.02,36.1.03,36.11.18.53c.51,1.47,1.34,2.47,2.56,3.07,1.65.81,3.41.81,5.1,0,1.32-.63,2.34-1.91,2.73-3.43.09-.35.12-4.66.14-21.49l.03-21.07h1.83v20.93c0,18.09.02,21.02.13,21.55.53,2.55,2.96,4.3,5.7,4.1,2.26-.16,3.97-1.43,4.68-3.49l.23-.7.03-36.11.02-36.11.94.03.93.03.04,13.52c.03,9.57.07,13.6.14,13.78.65,1.77,2.02,2.74,3.89,2.74,2.03,0,3.59-1.37,3.89-3.43.07-.5.09-4.7.07-15.39-.03-13.81-.04-14.75-.19-15.52-.96-4.97-4.35-8.63-9.09-9.81l-.91-.23-11.22-.02c-6.16,0-11.28,0-11.35,0Z"/>
  </g>
  <g>
    <path class="cls-10" d="m828.1,144.59c-2.52.45-4.73,1.91-6.13,4.03-1.17,1.77-1.64,3.7-1.48,5.92.26,3.36,2.57,6.46,5.73,7.7,1.24.49,1.84.59,3.38.6,1.46,0,1.82-.05,2.96-.41,2.29-.72,4.48-2.69,5.48-4.89,1.08-2.37,1.12-5.05.11-7.44-.63-1.51-2.01-3.2-3.29-4.04-2.03-1.34-4.52-1.88-6.76-1.47Z"/>
    <path class="cls-10" d="m818.48,165.02c-.07.02-.43.08-.78.13-.92.15-2.3.62-3.23,1.1-3.43,1.77-5.68,4.92-6.36,8.9-.09.51-.11,3.87-.11,15.78v15.13l.19.62c.62,1.94,2.7,3.09,4.75,2.61,1.4-.33,2.32-1.12,2.85-2.44l.21-.52.03-13.5.02-13.49h1.91l.02,36.1.03,36.11.18.53c.51,1.47,1.34,2.47,2.56,3.07,1.65.81,3.41.81,5.1,0,1.32-.63,2.34-1.91,2.73-3.43.09-.35.12-4.66.14-21.49l.03-21.07h1.83v20.93c0,18.09.02,21.02.13,21.55.53,2.55,2.96,4.3,5.7,4.1,2.26-.16,3.97-1.43,4.68-3.49l.23-.7.03-36.11.02-36.11.94.03.93.03.04,13.52c.03,9.57.07,13.6.14,13.78.65,1.77,2.02,2.74,3.89,2.74,2.03,0,3.59-1.37,3.89-3.43.07-.5.09-4.7.07-15.39-.03-13.81-.04-14.75-.19-15.52-.96-4.97-4.35-8.63-9.09-9.81l-.91-.23-11.22-.02c-6.16,0-11.28,0-11.35,0Z"/>
  </g>
  <g>
    <path class="cls-7" d="m894.77,145c-2.52.45-4.73,1.91-6.13,4.03-1.17,1.77-1.64,3.7-1.48,5.92.26,3.36,2.57,6.46,5.73,7.7,1.24.49,1.84.59,3.38.6,1.46,0,1.82-.05,2.96-.41,2.29-.72,4.48-2.69,5.48-4.89,1.08-2.37,1.12-5.05.11-7.44-.63-1.51-2.01-3.2-3.29-4.04-2.03-1.34-4.52-1.88-6.76-1.47Z"/>
    <path class="cls-7" d="m885.15,165.42c-.07.02-.43.08-.78.13-.92.15-2.3.62-3.23,1.1-3.43,1.77-5.68,4.92-6.36,8.9-.09.51-.11,3.87-.11,15.78v15.13l.19.62c.62,1.94,2.7,3.09,4.75,2.61,1.4-.33,2.32-1.12,2.85-2.44l.21-.52.03-13.5.02-13.49h1.91l.02,36.1.03,36.11.18.53c.51,1.47,1.34,2.47,2.56,3.07,1.65.81,3.41.81,5.1,0,1.32-.63,2.34-1.91,2.73-3.43.09-.35.12-4.66.14-21.49l.03-21.07h1.83v20.93c0,18.09.02,21.02.13,21.55.53,2.55,2.96,4.3,5.7,4.1,2.26-.16,3.97-1.43,4.68-3.49l.23-.7.03-36.11.02-36.11.94.03.93.03.04,13.52c.03,9.57.07,13.6.14,13.78.65,1.77,2.02,2.74,3.89,2.74,2.03,0,3.59-1.37,3.89-3.43.07-.5.09-4.7.07-15.39-.03-13.81-.04-14.75-.19-15.52-.96-4.97-4.35-8.63-9.09-9.81l-.91-.23-11.22-.02c-6.16,0-11.28,0-11.35,0Z"/>
  </g>
  <g>
    <path class="cls-7" d="m947.31,144.59c-2.52.45-4.73,1.91-6.13,4.03-1.17,1.77-1.64,3.7-1.48,5.92.26,3.36,2.57,6.46,5.73,7.7,1.24.49,1.84.59,3.38.6,1.46,0,1.82-.05,2.96-.41,2.29-.72,4.48-2.69,5.48-4.89,1.08-2.37,1.12-5.05.11-7.44-.63-1.51-2.01-3.2-3.29-4.04-2.03-1.34-4.52-1.88-6.76-1.47Z"/>
    <path class="cls-7" d="m937.68,165.02c-.07.02-.43.08-.78.13-.92.15-2.3.62-3.23,1.1-3.43,1.77-5.68,4.92-6.36,8.9-.09.51-.11,3.87-.11,15.78v15.13l.19.62c.62,1.94,2.7,3.09,4.75,2.61,1.4-.33,2.32-1.12,2.85-2.44l.21-.52.03-13.5.02-13.49h1.91l.02,36.1.03,36.11.18.53c.51,1.47,1.34,2.47,2.56,3.07,1.65.81,3.41.81,5.1,0,1.32-.63,2.34-1.91,2.73-3.43.09-.35.12-4.66.14-21.49l.03-21.07h1.83v20.93c0,18.09.02,21.02.13,21.55.53,2.55,2.96,4.3,5.7,4.1,2.26-.16,3.97-1.43,4.68-3.49l.23-.7.03-36.11.02-36.11.94.03.93.03.04,13.52c.03,9.57.07,13.6.14,13.78.65,1.77,2.02,2.74,3.89,2.74,2.03,0,3.59-1.37,3.89-3.43.07-.5.09-4.7.07-15.39-.03-13.81-.04-14.75-.19-15.52-.96-4.97-4.35-8.63-9.09-9.81l-.91-.23-11.22-.02c-6.16,0-11.28,0-11.35,0Z"/>
  </g>
  <g>
    <path class="cls-7" d="m1000.08,145c-2.52.45-4.73,1.91-6.13,4.03-1.17,1.77-1.64,3.7-1.48,5.92.26,3.36,2.57,6.46,5.73,7.7,1.24.49,1.84.59,3.38.6,1.46,0,1.82-.05,2.96-.41,2.29-.72,4.48-2.69,5.48-4.89,1.08-2.37,1.12-5.05.11-7.44-.63-1.51-2.01-3.2-3.29-4.04-2.03-1.34-4.52-1.88-6.76-1.47Z"/>
    <path class="cls-7" d="m990.46,165.42c-.07.02-.43.08-.78.13-.92.15-2.3.62-3.23,1.1-3.43,1.77-5.68,4.92-6.36,8.9-.09.51-.11,3.87-.11,15.78v15.13l.19.62c.62,1.94,2.7,3.09,4.75,2.61,1.4-.33,2.32-1.12,2.85-2.44l.21-.52.03-13.5.02-13.49h1.91l.02,36.1.03,36.11.18.53c.51,1.47,1.34,2.47,2.56,3.07,1.65.81,3.41.81,5.1,0,1.32-.63,2.34-1.91,2.73-3.43.09-.35.12-4.66.14-21.49l.03-21.07h1.83v20.93c0,18.09.02,21.02.13,21.55.53,2.55,2.96,4.3,5.7,4.1,2.26-.16,3.97-1.43,4.68-3.49l.23-.7.03-36.11.02-36.11.94.03.93.03.04,13.52c.03,9.57.07,13.6.14,13.78.65,1.77,2.02,2.74,3.89,2.74,2.03,0,3.59-1.37,3.89-3.43.07-.5.09-4.7.07-15.39-.03-13.81-.04-14.75-.19-15.52-.96-4.97-4.35-8.63-9.09-9.81l-.91-.23-11.22-.02c-6.16,0-11.28,0-11.35,0Z"/>
  </g>
  <g>
    <path class="cls-2" d="m1082.89,145c-2.52.45-4.73,1.91-6.13,4.03-1.17,1.77-1.64,3.7-1.48,5.92.26,3.36,2.57,6.46,5.73,7.7,1.24.49,1.84.59,3.38.6,1.46,0,1.82-.05,2.96-.41,2.29-.72,4.48-2.69,5.48-4.89,1.08-2.37,1.12-5.05.11-7.44-.63-1.51-2.01-3.2-3.29-4.04-2.03-1.34-4.52-1.88-6.76-1.47Z"/>
    <path class="cls-2" d="m1073.27,165.42c-.07.02-.43.08-.78.13-.92.15-2.3.62-3.23,1.1-3.43,1.77-5.68,4.92-6.36,8.9-.09.51-.11,3.87-.11,15.78v15.13l.19.62c.62,1.94,2.7,3.09,4.75,2.61,1.4-.33,2.32-1.12,2.85-2.44l.21-.52.03-13.5.02-13.49h1.91l.02,36.1.03,36.11.18.53c.51,1.47,1.34,2.47,2.56,3.07,1.65.81,3.41.81,5.1,0,1.32-.63,2.34-1.91,2.73-3.43.09-.35.12-4.66.14-21.49l.03-21.07h1.83v20.93c0,18.09.02,21.02.13,21.55.53,2.55,2.96,4.3,5.7,4.1,2.26-.16,3.97-1.43,4.68-3.49l.23-.7.03-36.11.02-36.11.94.03.93.03.04,13.52c.03,9.57.07,13.6.14,13.78.65,1.77,2.02,2.74,3.89,2.74,2.03,0,3.59-1.37,3.89-3.43.07-.5.09-4.7.07-15.39-.03-13.81-.04-14.75-.19-15.52-.96-4.97-4.35-8.63-9.09-9.81l-.91-.23-11.22-.02c-6.16,0-11.28,0-11.35,0Z"/>
  </g>
  <g>
    <path class="cls-2" d="m1191.18,145c-2.52.45-4.73,1.91-6.13,4.03-1.17,1.77-1.64,3.7-1.48,5.92.26,3.36,2.57,6.46,5.73,7.7,1.24.49,1.84.59,3.38.6,1.46,0,1.82-.05,2.96-.41,2.29-.72,4.48-2.69,5.48-4.89,1.08-2.37,1.12-5.05.11-7.44-.63-1.51-2.01-3.2-3.29-4.04-2.03-1.34-4.52-1.88-6.76-1.47Z"/>
    <path class="cls-2" d="m1181.55,165.42c-.07.02-.43.08-.78.13-.92.15-2.3.62-3.23,1.1-3.43,1.77-5.68,4.92-6.36,8.9-.09.51-.11,3.87-.11,15.78v15.13l.19.62c.62,1.94,2.7,3.09,4.75,2.61,1.4-.33,2.32-1.12,2.85-2.44l.21-.52.03-13.5.02-13.49h1.91l.02,36.1.03,36.11.18.53c.51,1.47,1.34,2.47,2.56,3.07,1.65.81,3.41.81,5.1,0,1.32-.63,2.34-1.91,2.73-3.43.09-.35.12-4.66.14-21.49l.03-21.07h1.83v20.93c0,18.09.02,21.02.13,21.55.53,2.55,2.96,4.3,5.7,4.1,2.26-.16,3.97-1.43,4.68-3.49l.23-.7.03-36.11.02-36.11.94.03.93.03.04,13.52c.03,9.57.07,13.6.14,13.78.65,1.77,2.02,2.74,3.89,2.74,2.03,0,3.59-1.37,3.89-3.43.07-.5.09-4.7.07-15.39-.03-13.81-.04-14.75-.19-15.52-.96-4.97-4.35-8.63-9.09-9.81l-.91-.23-11.22-.02c-6.16,0-11.28,0-11.35,0Z"/>
  </g>
  <g>
    <path class="cls-2" d="m1137.08,144.59c-2.52.45-4.73,1.91-6.13,4.03-1.17,1.77-1.64,3.7-1.48,5.92.26,3.36,2.57,6.46,5.73,7.7,1.24.49,1.84.59,3.38.6,1.46,0,1.82-.05,2.96-.41,2.29-.72,4.48-2.69,5.48-4.89,1.08-2.37,1.12-5.05.11-7.44-.63-1.51-2.01-3.2-3.29-4.04-2.03-1.34-4.52-1.88-6.76-1.47Z"/>
    <path class="cls-2" d="m1127.46,165.02c-.07.02-.43.08-.78.13-.92.15-2.3.62-3.23,1.1-3.43,1.77-5.68,4.92-6.36,8.9-.09.51-.11,3.87-.11,15.78v15.13l.19.62c.62,1.94,2.7,3.09,4.75,2.61,1.4-.33,2.32-1.12,2.85-2.44l.21-.52.03-13.5.02-13.49h1.91l.02,36.1.03,36.11.18.53c.51,1.47,1.34,2.47,2.56,3.07,1.65.81,3.41.81,5.1,0,1.32-.63,2.34-1.91,2.73-3.43.09-.35.12-4.66.14-21.49l.03-21.07h1.83v20.93c0,18.09.02,21.02.13,21.55.53,2.55,2.96,4.3,5.7,4.1,2.26-.16,3.97-1.43,4.68-3.49l.23-.7.03-36.11.02-36.11.94.03.93.03.04,13.52c.03,9.57.07,13.6.14,13.78.65,1.77,2.02,2.74,3.89,2.74,2.03,0,3.59-1.37,3.89-3.43.07-.5.09-4.7.07-15.39-.03-13.81-.04-14.75-.19-15.52-.96-4.97-4.35-8.63-9.09-9.81l-.91-.23-11.22-.02c-6.16,0-11.28,0-11.35,0Z"/>
  </g>
  <g>
    <path class="cls-8" d="m1222.98,321.41c-2.52.45-4.73,1.91-6.13,4.03-1.17,1.77-1.64,3.7-1.48,5.92.26,3.36,2.57,6.46,5.73,7.7,1.24.49,1.84.59,3.38.6,1.46,0,1.82-.05,2.96-.41,2.29-.72,4.48-2.69,5.48-4.89,1.08-2.37,1.12-5.05.11-7.44-.63-1.51-2.01-3.2-3.29-4.04-2.03-1.34-4.52-1.88-6.76-1.47Z"/>
    <path class="cls-8" d="m1213.35,341.83c-.07.02-.43.08-.78.13-.92.15-2.3.62-3.23,1.1-3.43,1.77-5.68,4.92-6.36,8.9-.09.51-.11,3.87-.11,15.78v15.13l.19.62c.62,1.94,2.7,3.09,4.75,2.61,1.4-.33,2.32-1.12,2.85-2.44l.21-.52.03-13.5.02-13.49h1.91l.02,36.1.03,36.11.18.53c.51,1.47,1.34,2.47,2.56,3.07,1.65.81,3.41.81,5.1,0,1.32-.63,2.34-1.91,2.73-3.43.09-.35.12-4.66.14-21.49l.03-21.07h1.83v20.93c0,18.09.02,21.02.13,21.55.53,2.55,2.96,4.3,5.7,4.1,2.26-.16,3.97-1.43,4.68-3.49l.23-.7.03-36.11.02-36.11.94.03.93.03.04,13.52c.03,9.57.07,13.6.14,13.78.65,1.77,2.02,2.74,3.89,2.74,2.03,0,3.59-1.37,3.89-3.43.07-.5.09-4.7.07-15.39-.03-13.81-.04-14.75-.19-15.52-.96-4.97-4.35-8.63-9.09-9.81l-.91-.23-11.22-.02c-6.16,0-11.28,0-11.35,0Z"/>
  </g>
  <circle class="cls-11" cx="243.83" cy="124.03" r="23.39"/>
  <circle class="cls-11" cx="243.83" cy="223.9" r="23.39"/>
  <circle class="cls-11" cx="243.83" cy="333.96" r="23.39"/>
  <circle class="cls-11" cx="335.7" cy="124.03" r="23.39"/>
  <circle class="cls-11" cx="335.7" cy="223.9" r="23.39"/>
  <circle class="cls-11" cx="243.83" cy="438.56" r="23.39"/>
  <circle class="cls-11" cx="335.7" cy="438.56" r="23.39"/>
  <circle class="cls-11" cx="335.7" cy="333.19" r="23.39"/>
  <circle class="cls-11" cx="608.56" cy="123.62" r="23.39"/>
  <circle class="cls-11" cx="608.56" cy="223.49" r="23.39"/>
  <circle class="cls-11" cx="608.56" cy="333.55" r="23.39"/>
  <circle class="cls-11" cx="700.43" cy="123.62" r="23.39"/>
  <circle class="cls-11" cx="700.43" cy="223.49" r="23.39"/>
  <circle class="cls-11" cx="608.56" cy="438.16" r="23.39"/>
  <circle class="cls-11" cx="700.43" cy="438.16" r="23.39"/>
  <circle class="cls-11" cx="700.43" cy="332.79" r="23.39"/>
  <circle class="cls-11" cx="1038.6" cy="333.69" r="23.39"/>
  <circle class="cls-11" cx="938.94" cy="333.69" r="23.39"/>
  <circle class="cls-11" cx="1135.21" cy="333.69" r="23.39"/>
  <circle class="cls-11" cx="1355.67" cy="434.23" r="23.39"/>
  <circle class="cls-11" cx="1451.5" cy="432.55" r="23.39"/>
  <circle class="cls-11" cx="1355.67" cy="336.22" r="23.39"/>
  <circle class="cls-11" cx="1451.5" cy="334.53" r="23.39"/>
  <circle class="cls-11" cx="1038.6" cy="433.39" r="23.39"/>
  <circle class="cls-11" cx="938.94" cy="435.17" r="23.39"/>
  <circle class="cls-11" cx="1135.21" cy="435.17" r="23.39"/>
  <polygon class="cls-14" points="390.21 152.56 549.22 152.56 549.22 242.11 468.73 242.11 454.64 256.19 439.01 240.56 390.21 240.56 390.21 152.56"/>
  <text class="cls-5" transform="translate(1270.38 239.02)"><tspan x="0" y="0">Any health </tspan><tspan x="1.34" y="28.8">concerns?</tspan></text>
  <polygon class="cls-14" points="1246.31 200.91 1405.32 200.91 1405.32 290.47 1304.11 290.47 1287.89 303.22 1269.07 288.92 1246.31 288.92 1246.31 200.91"/>
  <rect class="cls-13" x="808" y="82" width="228" height="55"/>
  <text class="cls-5" transform="translate(1307.89 523.29)"><tspan x="0" y="0">Cafeteria</tspan></text>
  <rect class="cls-13" x="1228.27" y="487.2" width="256.62" height="55"/>
  <text class="cls-5" transform="translate(1077.68 118.09)"><tspan x="0" y="0">Health</tspan><tspan class="cls-17" x="69.38" y="0"> </tspan><tspan x="74.72" y="0">Advocates</tspan></text>
  <rect class="cls-13" x="1057.07" y="82" width="228" height="55"/>
  <text class="cls-5" transform="translate(1360.71 118.09)"><tspan x="0" y="0">Police</tspan></text>
  <rect class="cls-13" x="1305.79" y="82" width="175.21" height="55"/>
</svg>